<svg width="883" height="391" viewBox="0 0 883 391" fill="none" xmlns="http://www.w3.org/2000/svg">
<rect x="1.5" y="25.5" width="880" height="364" rx="28.5" fill="white" stroke="black" stroke-width="3"/>
<rect x="82" y="3" width="360" height="42" fill="white"/>
<path d="M115.748 25.8906V22.5156C115.736 21.6484 115.654 20.7637 115.502 19.8613C115.361 18.9473 115.145 18.0625 114.852 17.207C114.547 16.3633 114.166 15.5664 113.709 14.8164C113.252 14.0664 112.707 13.416 112.074 12.8652C111.441 12.3027 110.715 11.8633 109.895 11.5469C109.074 11.2187 108.154 11.0547 107.135 11.0547C106.115 11.0547 105.195 11.2187 104.375 11.5469C103.555 11.8633 102.828 12.3027 102.195 12.8652C101.562 13.4277 101.018 14.084 100.561 14.834C100.104 15.5723 99.7227 16.3691 99.418 17.2246C99.125 18.0684 98.9023 18.9473 98.75 19.8613C98.6094 20.7637 98.5332 21.6484 98.5215 22.5156V25.8906C98.5332 26.7695 98.6152 27.6602 98.7676 28.5625C98.9199 29.4648 99.1426 30.3379 99.4355 31.1816C99.7402 32.0371 100.121 32.8398 100.578 33.5898C101.047 34.3281 101.598 34.9785 102.23 35.541C102.863 36.1035 103.59 36.5488 104.41 36.877C105.23 37.1934 106.15 37.3516 107.17 37.3516C108.178 37.3516 109.092 37.1934 109.912 36.877C110.732 36.5488 111.459 36.1035 112.092 35.541C112.725 34.9785 113.27 34.3281 113.727 33.5898C114.184 32.8398 114.559 32.043 114.852 31.1992C115.145 30.3438 115.361 29.4648 115.502 28.5625C115.654 27.6602 115.736 26.7695 115.748 25.8906ZM113.674 22.4805V25.8906C113.662 26.5703 113.609 27.2793 113.516 28.0176C113.434 28.7441 113.287 29.4648 113.076 30.1797C112.865 30.8828 112.596 31.5508 112.268 32.1836C111.939 32.8164 111.535 33.3789 111.055 33.8711C110.574 34.3516 110.012 34.7324 109.367 35.0137C108.723 35.2949 107.99 35.4355 107.17 35.4355C106.338 35.4355 105.6 35.2949 104.955 35.0137C104.322 34.7324 103.76 34.3516 103.268 33.8711C102.787 33.3789 102.377 32.8164 102.037 32.1836C101.709 31.5391 101.439 30.8652 101.229 30.1621C101.018 29.459 100.865 28.7441 100.771 28.0176C100.678 27.2793 100.625 26.5703 100.613 25.8906V22.4805C100.625 21.8125 100.678 21.1152 100.771 20.3887C100.865 19.6621 101.018 18.9473 101.229 18.2441C101.439 17.5293 101.709 16.8555 102.037 16.2227C102.365 15.5898 102.775 15.0332 103.268 14.5527C103.748 14.0723 104.305 13.6914 104.938 13.4102C105.582 13.1172 106.314 12.9707 107.135 12.9707C107.955 12.9707 108.688 13.1113 109.332 13.3926C109.977 13.6738 110.539 14.0547 111.02 14.5352C111.5 15.0156 111.904 15.5781 112.232 16.2227C112.572 16.8555 112.848 17.5234 113.059 18.2266C113.27 18.9297 113.422 19.6445 113.516 20.3711C113.609 21.0977 113.662 21.8008 113.674 22.4805ZM128.387 13.1113H126.242V17.9805H120.951V19.7207H126.242V31.6387C126.254 32.6816 126.406 33.5664 126.699 34.293C127.004 35.0078 127.42 35.5938 127.947 36.0508C128.475 36.5078 129.096 36.8359 129.811 37.0352C130.537 37.2461 131.322 37.3516 132.166 37.3516C132.576 37.3516 132.986 37.334 133.396 37.2988C133.818 37.2754 134.223 37.2344 134.609 37.1758C134.914 37.1289 135.201 37.0703 135.471 37C135.752 36.918 136.004 36.8301 136.227 36.7363L135.893 35.1367C135.717 35.1602 135.512 35.1953 135.277 35.2422C135.043 35.2773 134.797 35.3125 134.539 35.3477C134.211 35.3945 133.877 35.4297 133.537 35.4531C133.197 35.4766 132.857 35.4883 132.518 35.4883C131.943 35.4883 131.404 35.4238 130.9 35.2949C130.408 35.166 129.975 34.9551 129.6 34.6621C129.225 34.3574 128.926 33.9648 128.703 33.4844C128.492 32.9922 128.381 32.377 128.369 31.6387V19.7207H135.418V17.9805H128.369L128.387 13.1113ZM145.104 21.6895V10H142.994V37H145.104V23.9219C145.303 23.3242 145.584 22.7617 145.947 22.2344C146.322 21.707 146.75 21.25 147.23 20.8633C147.77 20.4297 148.361 20.0898 149.006 19.8438C149.662 19.5977 150.354 19.4746 151.08 19.4746C151.912 19.4629 152.633 19.5859 153.242 19.8438C153.863 20.0898 154.373 20.4531 154.771 20.9336C155.17 21.3906 155.463 21.9531 155.65 22.6211C155.838 23.2773 155.938 24.0156 155.949 24.8359V37H158.059V24.8535C158.047 23.7051 157.9 22.6855 157.619 21.7949C157.338 20.8926 156.928 20.1309 156.389 19.5098C155.838 18.8887 155.158 18.4199 154.35 18.1035C153.553 17.7871 152.633 17.6289 151.59 17.6289C150.793 17.6289 150.043 17.7461 149.34 17.9805C148.637 18.2148 147.992 18.543 147.406 18.9648C146.938 19.3047 146.504 19.709 146.105 20.1777C145.719 20.6348 145.385 21.1387 145.104 21.6895ZM172.719 37.3516C174.301 37.3516 175.689 37.041 176.885 36.4199C178.08 35.7988 179.041 34.9844 179.768 33.9766L178.432 32.957C177.752 33.8008 176.938 34.4453 175.988 34.8906C175.039 35.3359 173.979 35.5586 172.807 35.5586C171.787 35.5469 170.861 35.3418 170.029 34.9434C169.197 34.5449 168.482 34.0059 167.885 33.3262C167.299 32.6582 166.836 31.8906 166.496 31.0234C166.168 30.1562 165.98 29.2188 165.934 28.2109V27.6309H180.172V26.3477C180.172 25.1406 179.996 24.0098 179.645 22.9551C179.305 21.8887 178.801 20.9629 178.133 20.1777C177.477 19.3809 176.656 18.7598 175.672 18.3145C174.699 17.8574 173.586 17.6289 172.332 17.6289C171.137 17.6289 170.023 17.875 168.992 18.3672C167.973 18.8594 167.082 19.5391 166.32 20.4062C165.547 21.2734 164.938 22.293 164.492 23.4648C164.059 24.6367 163.842 25.9023 163.842 27.2617V28.0176C163.842 29.2949 164.059 30.502 164.492 31.6387C164.926 32.7637 165.535 33.7539 166.32 34.6094C167.094 35.4531 168.025 36.1211 169.115 36.6133C170.205 37.1055 171.406 37.3516 172.719 37.3516ZM172.332 19.4395C173.234 19.4395 174.037 19.6152 174.74 19.9668C175.443 20.3066 176.041 20.7637 176.533 21.3379C177.014 21.9121 177.389 22.5801 177.658 23.3418C177.939 24.1035 178.08 24.8652 178.08 25.627V25.8203H166.039C166.156 24.9062 166.391 24.0625 166.742 23.2891C167.094 22.5039 167.539 21.8301 168.078 21.2676C168.629 20.6934 169.262 20.248 169.977 19.9316C170.691 19.6035 171.477 19.4395 172.332 19.4395ZM198.805 17.6289C197.082 17.6172 195.582 17.9746 194.305 18.7012C193.039 19.4277 192.037 20.4414 191.299 21.7422L191.281 20.8984L191.158 17.9805H189.154V37H191.334L191.299 24.8184C191.533 23.9512 191.867 23.2012 192.301 22.5684C192.746 21.9238 193.268 21.3965 193.865 20.9863C194.486 20.541 195.184 20.2188 195.957 20.0195C196.742 19.8086 197.58 19.7031 198.471 19.7031C198.986 19.7031 199.49 19.7324 199.982 19.791C200.475 19.8496 200.961 19.9316 201.441 20.0371L201.723 17.998C201.359 17.8809 200.908 17.793 200.369 17.7344C199.842 17.6641 199.32 17.6289 198.805 17.6289ZM229.953 10V11.8809H236.721V35.1191H229.953V37H245.264V35.1191H238.812V10H229.953ZM264.16 37H266.41V36.7715C266.246 36.1973 266.105 35.5879 265.988 34.9434C265.883 34.2871 265.824 33.6426 265.812 33.0098V23.8164C265.801 22.7852 265.607 21.8828 265.232 21.1094C264.857 20.3359 264.342 19.6914 263.686 19.1758C263.029 18.6602 262.262 18.2734 261.383 18.0156C260.504 17.7578 259.561 17.6289 258.553 17.6289C257.545 17.6289 256.596 17.7695 255.705 18.0508C254.826 18.332 254.053 18.7188 253.385 19.2109C252.717 19.7148 252.184 20.3066 251.785 20.9863C251.387 21.666 251.17 22.4102 251.135 23.2188L253.244 23.2363C253.268 22.6387 253.426 22.1055 253.719 21.6367C254.012 21.1562 254.398 20.752 254.879 20.4238C255.348 20.0957 255.893 19.8438 256.514 19.668C257.135 19.4922 257.785 19.4043 258.465 19.4043C259.203 19.4043 259.889 19.5039 260.521 19.7031C261.166 19.8906 261.723 20.166 262.191 20.5293C262.66 20.8926 263.029 21.3496 263.299 21.9004C263.568 22.4395 263.709 23.0664 263.721 23.7812V25.9258H259.59C258.406 25.9258 257.275 26.0371 256.197 26.2598C255.119 26.4707 254.17 26.8164 253.35 27.2969C252.541 27.7773 251.891 28.4043 251.398 29.1777C250.918 29.9395 250.678 30.8652 250.678 31.9551C250.678 32.7637 250.842 33.502 251.17 34.1699C251.498 34.8379 251.943 35.4062 252.506 35.875C253.068 36.332 253.736 36.6953 254.51 36.9648C255.283 37.2227 256.109 37.3516 256.988 37.3516C257.691 37.3516 258.365 37.2754 259.01 37.123C259.666 36.9824 260.281 36.7773 260.855 36.5078C261.441 36.2266 261.975 35.8926 262.455 35.5059C262.947 35.1074 263.375 34.668 263.738 34.1875C263.762 34.6797 263.803 35.166 263.861 35.6465C263.932 36.127 264.031 36.5781 264.16 37ZM257.234 35.4707C256.613 35.4707 256.033 35.3828 255.494 35.207C254.955 35.0312 254.486 34.7852 254.088 34.4688C253.678 34.1523 253.355 33.7656 253.121 33.3086C252.898 32.8398 252.787 32.3242 252.787 31.7617C252.775 31.0586 252.928 30.4609 253.244 29.9688C253.561 29.4648 253.988 29.043 254.527 28.7031C255.172 28.293 255.963 28.0059 256.9 27.8418C257.85 27.666 258.846 27.5723 259.889 27.5605H263.721V31.7266C263.451 32.2891 263.1 32.8047 262.666 33.2734C262.232 33.7305 261.734 34.123 261.172 34.4512C260.609 34.7793 259.994 35.0312 259.326 35.207C258.658 35.3828 257.961 35.4707 257.234 35.4707ZM272.703 37H274.812V24.0098C275.012 23.3887 275.293 22.8086 275.656 22.2695C276.031 21.7305 276.459 21.2617 276.939 20.8633C277.467 20.4414 278.053 20.1074 278.697 19.8613C279.342 19.6035 280.027 19.4746 280.754 19.4746C281.586 19.4629 282.301 19.5742 282.898 19.8086C283.508 20.043 284.018 20.3887 284.428 20.8457C284.826 21.3027 285.119 21.8652 285.307 22.5332C285.506 23.2012 285.611 23.9688 285.623 24.8359V37H287.732L287.715 24.8008C287.715 23.6641 287.574 22.6504 287.293 21.7598C287.012 20.8574 286.602 20.1016 286.062 19.4922C285.512 18.8828 284.832 18.4199 284.023 18.1035C283.227 17.7871 282.307 17.6289 281.264 17.6289C280.479 17.6289 279.74 17.7461 279.049 17.9805C278.357 18.2031 277.719 18.5195 277.133 18.9297C276.641 19.2695 276.195 19.6738 275.797 20.1426C275.398 20.6113 275.053 21.1211 274.76 21.6719L274.654 17.9805H272.703V37ZM293.727 27.3145V27.6836C293.727 28.9258 293.885 30.1445 294.201 31.3398C294.518 32.5234 295.004 33.5605 295.66 34.4512C296.281 35.3301 297.055 36.0332 297.98 36.5605C298.906 37.0879 299.996 37.3516 301.25 37.3516C301.883 37.3516 302.492 37.2754 303.078 37.123C303.676 36.9824 304.232 36.7773 304.748 36.5078C305.182 36.2852 305.58 36.0215 305.943 35.7168C306.318 35.4004 306.646 35.043 306.928 34.6445V36.7363C306.928 37.6387 306.799 38.459 306.541 39.1973C306.295 39.9355 305.938 40.5684 305.469 41.0957C304.977 41.6348 304.379 42.0508 303.676 42.3438C302.984 42.6367 302.188 42.7832 301.285 42.7832C300.711 42.7832 300.16 42.707 299.633 42.5547C299.117 42.4141 298.625 42.2031 298.156 41.9219C297.77 41.7109 297.389 41.4473 297.014 41.1309C296.65 40.8145 296.299 40.4512 295.959 40.041L294.781 41.3242C295.156 41.8398 295.584 42.2852 296.064 42.6602C296.557 43.0469 297.066 43.3691 297.594 43.627C298.215 43.9434 298.854 44.1777 299.51 44.3301C300.166 44.4941 300.805 44.5762 301.426 44.5762C302.598 44.5762 303.652 44.3828 304.59 43.9961C305.527 43.6094 306.324 43.0645 306.98 42.3613C307.637 41.6699 308.141 40.8379 308.492 39.8652C308.855 38.9043 309.037 37.8379 309.037 36.666V17.9805H307.086L306.998 20.6348C306.729 20.2246 306.418 19.8496 306.066 19.5098C305.727 19.1699 305.352 18.877 304.941 18.6309C304.426 18.3027 303.857 18.0566 303.236 17.8926C302.627 17.7168 301.977 17.6289 301.285 17.6289C299.961 17.6289 298.818 17.9102 297.857 18.4727C296.908 19.0352 296.129 19.7734 295.52 20.6875C294.91 21.5898 294.459 22.6094 294.166 23.7461C293.873 24.8828 293.727 26.0723 293.727 27.3145ZM295.836 27.6836V27.3145C295.836 26.377 295.936 25.4512 296.135 24.5371C296.334 23.623 296.65 22.8027 297.084 22.0762C297.541 21.3145 298.145 20.6934 298.895 20.2129C299.645 19.7207 300.576 19.4746 301.689 19.4746C302.311 19.4746 302.891 19.5684 303.43 19.7559C303.98 19.9316 304.479 20.1836 304.924 20.5117C305.369 20.8398 305.762 21.2266 306.102 21.6719C306.441 22.1172 306.717 22.6152 306.928 23.166V32.0957C306.717 32.623 306.43 33.0977 306.066 33.5195C305.715 33.9414 305.311 34.2988 304.854 34.5918C304.396 34.8848 303.898 35.1074 303.359 35.2598C302.82 35.4121 302.252 35.4883 301.654 35.4883C300.623 35.4883 299.738 35.2773 299 34.8555C298.262 34.4219 297.67 33.8477 297.225 33.1328C296.744 32.4062 296.393 31.5625 296.17 30.6016C295.959 29.6289 295.848 28.6562 295.836 27.6836ZM328.83 37H330.799V17.9805H328.672V31.375C328.508 31.9961 328.262 32.5586 327.934 33.0625C327.617 33.5547 327.225 33.9766 326.756 34.3281C326.252 34.7031 325.666 34.9961 324.998 35.207C324.33 35.4062 323.586 35.5059 322.766 35.5059C321.98 35.5059 321.301 35.3828 320.727 35.1367C320.152 34.8906 319.672 34.5215 319.285 34.0293C318.898 33.5371 318.611 32.9336 318.424 32.2188C318.236 31.4922 318.143 30.6543 318.143 29.7051V17.9805H316.033V29.6699C316.045 30.8887 316.191 31.9785 316.473 32.9395C316.754 33.8887 317.17 34.6914 317.721 35.3477C318.271 35.9922 318.945 36.4902 319.742 36.8418C320.551 37.1816 321.482 37.3516 322.537 37.3516C323.967 37.3516 325.203 37.0586 326.246 36.4727C327.289 35.875 328.121 35.0488 328.742 33.9941L328.83 37ZM350.645 37H352.895V36.7715C352.73 36.1973 352.59 35.5879 352.473 34.9434C352.367 34.2871 352.309 33.6426 352.297 33.0098V23.8164C352.285 22.7852 352.092 21.8828 351.717 21.1094C351.342 20.3359 350.826 19.6914 350.17 19.1758C349.514 18.6602 348.746 18.2734 347.867 18.0156C346.988 17.7578 346.045 17.6289 345.037 17.6289C344.029 17.6289 343.08 17.7695 342.189 18.0508C341.311 18.332 340.537 18.7188 339.869 19.2109C339.201 19.7148 338.668 20.3066 338.27 20.9863C337.871 21.666 337.654 22.4102 337.619 23.2188L339.729 23.2363C339.752 22.6387 339.91 22.1055 340.203 21.6367C340.496 21.1562 340.883 20.752 341.363 20.4238C341.832 20.0957 342.377 19.8438 342.998 19.668C343.619 19.4922 344.27 19.4043 344.949 19.4043C345.688 19.4043 346.373 19.5039 347.006 19.7031C347.65 19.8906 348.207 20.166 348.676 20.5293C349.145 20.8926 349.514 21.3496 349.783 21.9004C350.053 22.4395 350.193 23.0664 350.205 23.7812V25.9258H346.074C344.891 25.9258 343.76 26.0371 342.682 26.2598C341.604 26.4707 340.654 26.8164 339.834 27.2969C339.025 27.7773 338.375 28.4043 337.883 29.1777C337.402 29.9395 337.162 30.8652 337.162 31.9551C337.162 32.7637 337.326 33.502 337.654 34.1699C337.982 34.8379 338.428 35.4062 338.99 35.875C339.553 36.332 340.221 36.6953 340.994 36.9648C341.768 37.2227 342.594 37.3516 343.473 37.3516C344.176 37.3516 344.85 37.2754 345.494 37.123C346.15 36.9824 346.766 36.7773 347.34 36.5078C347.926 36.2266 348.459 35.8926 348.939 35.5059C349.432 35.1074 349.859 34.668 350.223 34.1875C350.246 34.6797 350.287 35.166 350.346 35.6465C350.416 36.127 350.516 36.5781 350.645 37ZM343.719 35.4707C343.098 35.4707 342.518 35.3828 341.979 35.207C341.439 35.0312 340.971 34.7852 340.572 34.4688C340.162 34.1523 339.84 33.7656 339.605 33.3086C339.383 32.8398 339.271 32.3242 339.271 31.7617C339.26 31.0586 339.412 30.4609 339.729 29.9688C340.045 29.4648 340.473 29.043 341.012 28.7031C341.656 28.293 342.447 28.0059 343.385 27.8418C344.334 27.666 345.33 27.5723 346.373 27.5605H350.205V31.7266C349.936 32.2891 349.584 32.8047 349.15 33.2734C348.717 33.7305 348.219 34.123 347.656 34.4512C347.094 34.7793 346.479 35.0312 345.811 35.207C345.143 35.3828 344.445 35.4707 343.719 35.4707ZM358.59 27.3145V27.6836C358.59 28.9258 358.748 30.1445 359.064 31.3398C359.381 32.5234 359.867 33.5605 360.523 34.4512C361.145 35.3301 361.918 36.0332 362.844 36.5605C363.77 37.0879 364.859 37.3516 366.113 37.3516C366.746 37.3516 367.355 37.2754 367.941 37.123C368.539 36.9824 369.096 36.7773 369.611 36.5078C370.045 36.2852 370.443 36.0215 370.807 35.7168C371.182 35.4004 371.51 35.043 371.791 34.6445V36.7363C371.791 37.6387 371.662 38.459 371.404 39.1973C371.158 39.9355 370.801 40.5684 370.332 41.0957C369.84 41.6348 369.242 42.0508 368.539 42.3438C367.848 42.6367 367.051 42.7832 366.148 42.7832C365.574 42.7832 365.023 42.707 364.496 42.5547C363.98 42.4141 363.488 42.2031 363.02 41.9219C362.633 41.7109 362.252 41.4473 361.877 41.1309C361.514 40.8145 361.162 40.4512 360.822 40.041L359.645 41.3242C360.02 41.8398 360.447 42.2852 360.928 42.6602C361.42 43.0469 361.93 43.3691 362.457 43.627C363.078 43.9434 363.717 44.1777 364.373 44.3301C365.029 44.4941 365.668 44.5762 366.289 44.5762C367.461 44.5762 368.516 44.3828 369.453 43.9961C370.391 43.6094 371.188 43.0645 371.844 42.3613C372.5 41.6699 373.004 40.8379 373.355 39.8652C373.719 38.9043 373.9 37.8379 373.9 36.666V17.9805H371.949L371.861 20.6348C371.592 20.2246 371.281 19.8496 370.93 19.5098C370.59 19.1699 370.215 18.877 369.805 18.6309C369.289 18.3027 368.721 18.0566 368.1 17.8926C367.49 17.7168 366.84 17.6289 366.148 17.6289C364.824 17.6289 363.682 17.9102 362.721 18.4727C361.771 19.0352 360.992 19.7734 360.383 20.6875C359.773 21.5898 359.322 22.6094 359.029 23.7461C358.736 24.8828 358.59 26.0723 358.59 27.3145ZM360.699 27.6836V27.3145C360.699 26.377 360.799 25.4512 360.998 24.5371C361.197 23.623 361.514 22.8027 361.947 22.0762C362.404 21.3145 363.008 20.6934 363.758 20.2129C364.508 19.7207 365.439 19.4746 366.553 19.4746C367.174 19.4746 367.754 19.5684 368.293 19.7559C368.844 19.9316 369.342 20.1836 369.787 20.5117C370.232 20.8398 370.625 21.2266 370.965 21.6719C371.305 22.1172 371.58 22.6152 371.791 23.166V32.0957C371.58 32.623 371.293 33.0977 370.93 33.5195C370.578 33.9414 370.174 34.2988 369.717 34.5918C369.26 34.8848 368.762 35.1074 368.223 35.2598C367.684 35.4121 367.115 35.4883 366.518 35.4883C365.486 35.4883 364.602 35.2773 363.863 34.8555C363.125 34.4219 362.533 33.8477 362.088 33.1328C361.607 32.4062 361.256 31.5625 361.033 30.6016C360.822 29.6289 360.711 28.6562 360.699 27.6836ZM388.93 37.3516C390.512 37.3516 391.9 37.041 393.096 36.4199C394.291 35.7988 395.252 34.9844 395.979 33.9766L394.643 32.957C393.963 33.8008 393.148 34.4453 392.199 34.8906C391.25 35.3359 390.189 35.5586 389.018 35.5586C387.998 35.5469 387.072 35.3418 386.24 34.9434C385.408 34.5449 384.693 34.0059 384.096 33.3262C383.51 32.6582 383.047 31.8906 382.707 31.0234C382.379 30.1562 382.191 29.2188 382.145 28.2109V27.6309H396.383V26.3477C396.383 25.1406 396.207 24.0098 395.855 22.9551C395.516 21.8887 395.012 20.9629 394.344 20.1777C393.688 19.3809 392.867 18.7598 391.883 18.3145C390.91 17.8574 389.797 17.6289 388.543 17.6289C387.348 17.6289 386.234 17.875 385.203 18.3672C384.184 18.8594 383.293 19.5391 382.531 20.4062C381.758 21.2734 381.148 22.293 380.703 23.4648C380.27 24.6367 380.053 25.9023 380.053 27.2617V28.0176C380.053 29.2949 380.27 30.502 380.703 31.6387C381.137 32.7637 381.746 33.7539 382.531 34.6094C383.305 35.4531 384.236 36.1211 385.326 36.6133C386.416 37.1055 387.617 37.3516 388.93 37.3516ZM388.543 19.4395C389.445 19.4395 390.248 19.6152 390.951 19.9668C391.654 20.3066 392.252 20.7637 392.744 21.3379C393.225 21.9121 393.6 22.5801 393.869 23.3418C394.15 24.1035 394.291 24.8652 394.291 25.627V25.8203H382.25C382.367 24.9062 382.602 24.0625 382.953 23.2891C383.305 22.5039 383.75 21.8301 384.289 21.2676C384.84 20.6934 385.473 20.248 386.188 19.9316C386.902 19.6035 387.688 19.4395 388.543 19.4395ZM415.701 32.1484C415.701 32.5938 415.602 32.998 415.402 33.3613C415.215 33.7246 414.945 34.0469 414.594 34.3281C414.055 34.7383 413.416 35.0488 412.678 35.2598C411.939 35.459 411.154 35.5586 410.322 35.5586C409.689 35.5586 409.039 35.5 408.371 35.3828C407.715 35.2539 407.111 35.0371 406.561 34.7324C406.01 34.4277 405.541 34.0293 405.154 33.5371C404.779 33.0332 404.557 32.4062 404.486 31.6562H402.377C402.412 32.5234 402.635 33.3086 403.045 34.0117C403.467 34.7148 404.041 35.3125 404.768 35.8047C405.471 36.2852 406.303 36.666 407.264 36.9473C408.225 37.2168 409.244 37.3516 410.322 37.3516C411.318 37.3516 412.291 37.2285 413.24 36.9824C414.201 36.7363 415.051 36.3555 415.789 35.8398C416.387 35.4062 416.873 34.873 417.248 34.2402C417.623 33.5957 417.811 32.8633 417.811 32.043C417.811 31.1758 417.611 30.4375 417.213 29.8281C416.826 29.207 416.305 28.6797 415.648 28.2461C414.98 27.8125 414.207 27.4551 413.328 27.1738C412.449 26.8926 411.529 26.6465 410.568 26.4355C409.818 26.2832 409.098 26.1133 408.406 25.9258C407.727 25.7266 407.141 25.4805 406.648 25.1875C406.156 24.918 405.781 24.584 405.523 24.1855C405.266 23.7754 405.137 23.2949 405.137 22.7441C405.137 22.1934 405.283 21.7129 405.576 21.3027C405.869 20.8809 406.25 20.5352 406.719 20.2656C407.188 19.9844 407.721 19.7793 408.318 19.6504C408.928 19.5098 409.555 19.4395 410.199 19.4395C410.879 19.4395 411.535 19.5273 412.168 19.7031C412.812 19.8789 413.387 20.1309 413.891 20.459C414.383 20.7871 414.781 21.1914 415.086 21.6719C415.402 22.1523 415.566 22.6973 415.578 23.3066H417.705C417.67 22.4043 417.447 21.6016 417.037 20.8984C416.639 20.1953 416.105 19.5977 415.438 19.1055C414.77 18.625 413.984 18.2617 413.082 18.0156C412.191 17.7578 411.23 17.6289 410.199 17.6289C409.285 17.6289 408.395 17.7461 407.527 17.9805C406.672 18.2148 405.922 18.543 405.277 18.9648C404.598 19.4219 404.053 19.9727 403.643 20.6172C403.244 21.2617 403.045 21.9941 403.045 22.8145C403.045 23.6816 403.244 24.4199 403.643 25.0293C404.053 25.627 404.586 26.1191 405.242 26.5059C405.945 26.916 406.701 27.25 407.51 27.5078C408.318 27.7656 409.209 27.9941 410.182 28.1934C410.955 28.3574 411.699 28.5566 412.414 28.791C413.129 29.0254 413.738 29.3066 414.242 29.6348C414.699 29.9277 415.057 30.2852 415.314 30.707C415.572 31.1172 415.701 31.5977 415.701 32.1484Z" fill="black"/>
</svg>
