<svg xmlns="http://www.w3.org/2000/svg" enable-background="new 0 0 24 24" viewBox="0 0 24 24"><path d="M14.931,21.5h-1.087c-0.158,0-0.308-0.075-0.402-0.202c-0.094-0.128-0.122-0.292-0.076-0.444l1.189-3.892c-0.184-0.074-0.312-0.254-0.312-0.464c0-0.276,0.224-0.5,0.5-0.5h0.477c0.158,0,0.308,0.075,0.402,0.202c0.094,0.128,0.122,0.292,0.076,0.444L14.52,20.5h0.411c0.276,0,0.5,0.224,0.5,0.5S15.207,21.5,14.931,21.5z"/><path d="M18.087,21.5H17c-0.161,0-0.313-0.078-0.407-0.21c-0.094-0.131-0.118-0.3-0.065-0.452l1.319-3.84h-0.014l-0.057,0.164c-0.07,0.201-0.26,0.336-0.473,0.336h-2.155c-0.276,0-0.5-0.224-0.5-0.5s0.224-0.5,0.5-0.5h1.8l0.057-0.164c0.07-0.201,0.26-0.336,0.473-0.336h1.083c0.164,0,0.317,0.08,0.41,0.215c0.094,0.134,0.115,0.306,0.059,0.459l-0.186,0.5L17.7,20.5h0.387c0.276,0,0.5,0.224,0.5,0.5S18.363,21.5,18.087,21.5z"/><path d="M21.312 21.5h-1.088c-.161 0-.313-.078-.407-.21-.094-.131-.118-.3-.065-.452l1.319-3.84h-.014L21 17.162c-.07.201-.26.336-.473.336h-2.154c-.276 0-.5-.224-.5-.5s.224-.5.5-.5h1.799l.057-.164c.07-.201.26-.336.473-.336h1.083c.164 0 .317.08.41.215.094.134.115.306.059.459l-.186.5L20.924 20.5h.388c.276 0 .5.224.5.5S21.588 21.5 21.312 21.5zM5 22H3.28c-.087 0-.173-.022-.248-.065l-.28-.16C2.596 21.685 2.5 21.52 2.5 21.34V3.49H1.61c-.125 0-.245-.047-.337-.131l-.11-.101C1.06 3.164 1 3.03 1 2.89V1.66c0-.127.049-.25.136-.342l.15-.16C1.381 1.057 1.513 1 1.65 1h7.63c.129 0 .253.05.346.139l.229.22C9.954 1.453 10.01 1.583 10.01 1.72v1.16c0 .117-.041.229-.115.319l-.149.18C9.649 3.493 9.509 3.56 9.36 3.56H9v7.367l7.482-7.367H15.69c-.137 0-.268-.056-.361-.154l-.19-.199C15.05 3.113 15 2.989 15 2.86V1.65c0-.14.059-.272.16-.367l.13-.12c.093-.085.214-.133.34-.133h7.73c.133 0 .26.053.354.146l.14.14C23.947 1.41 24 1.537 24 1.67v1.12c0 .132-.052.258-.145.352l-10.43 10.55c-.194.196-.511.198-.707.004s-.198-.511-.004-.707L23 2.585V2.03h-7V2.56h1.7c.203 0 .386.122.463.311.077.188.033.402-.111.545l-9.201 9.062c-.144.142-.356.184-.544.104C8.121 12.504 8 12.321 8 12.12V3.06c0-.276.224-.5.5-.5h.51V2H2v.49h1c.276 0 .5.224.5.5V21h1.292l4.852-4.91c.194-.197.511-.198.707-.006.197.193.199.511.006.707l-5.002 5.062C5.261 21.947 5.133 22 5 22z"/><path d="M12 24c-.128 0-.256-.049-.354-.146l-4.51-4.51c-.195-.195-.195-.512 0-.707s.512-.195.707 0L12 22.793l.816-.816c.195-.195.512-.195.707 0s.195.512 0 .707l-1.17 1.17C12.256 23.951 12.128 24 12 24zM20 16c-.128 0-.256-.049-.354-.146-.195-.195-.195-.512 0-.707L22.793 12l-4.227-4.227c-.195-.195-.195-.512 0-.707s.512-.195.707 0l4.58 4.58c.195.195.195.512 0 .707l-3.5 3.5C20.256 15.951 20.128 16 20 16zM16.12 5.12c-.128 0-.256-.049-.354-.146L12 1.207 8.854 4.354c-.195.195-.512.195-.707 0s-.195-.512 0-.707l3.5-3.5c.195-.195.512-.195.707 0l4.12 4.12c.195.195.195.512 0 .707C16.376 5.071 16.248 5.12 16.12 5.12zM3 15c-.128 0-.256-.049-.354-.146l-2.5-2.5c-.195-.195-.195-.512 0-.707l2.5-2.5c.195-.195.512-.195.707 0s.195.512 0 .707L1.207 12l2.146 2.146c.195.195.195.512 0 .707C3.256 14.951 3.128 15 3 15z"/><path d="M11.5 21.5h-1c-.161 0-.312-.077-.405-.208-.095-.13-.12-.298-.069-.45l1.292-3.876C11.132 16.893 11 16.712 11 16.5c0-.276.224-.5.5-.5H12c.161 0 .312.077.405.208.095.13.12.298.069.45L11.193 20.5H11.5c.276 0 .5.224.5.5S11.776 21.5 11.5 21.5zM10 16.94c-.007 0-.014 0-.021 0-.275-.012-.49-.244-.479-.521.021-.486.21-.934.541-1.287C10.014 14.999 10 14.861 10 14.72c0-1.103.897-2 2-2h.5c.279 0 .551.058.783.168.25.117.357.415.239.665-.117.251-.417.356-.665.239-.1-.047-.227-.072-.357-.072H12c-.552 0-1 .448-1 1 0 .136.024.263.072.379.087.209.022.45-.157.588-.256.196-.403.472-.415.774C10.488 16.729 10.268 16.94 10 16.94z"/><path d="M12.5,15.223H12c-0.276,0-0.5-0.224-0.5-0.5s0.224-0.5,0.5-0.5h0.5c0.276,0,0.5,0.224,0.5,0.5S12.776,15.223,12.5,15.223z"/></svg>