<svg width="883" height="391" viewBox="0 0 883 391" fill="none" xmlns="http://www.w3.org/2000/svg">
<rect x="1.5" y="25.5" width="880" height="364" rx="28.5" fill="white" stroke="black" stroke-width="3"/>
<rect x="82" y="3" width="360" height="42" fill="white"/>
<path d="M101.439 37H103.549L107.205 17.2246L107.469 15.748L107.732 17.2246L111.354 37H113.445L117.049 11.4062H115.08L112.566 30.1094L112.25 32.2715L111.898 30.1094L108.383 11.4062H106.537L103.004 30.1094L102.652 32.2539L102.354 30.127L99.8223 11.4062H97.8359L101.439 37ZM129.477 37.3516C131.059 37.3516 132.447 37.041 133.643 36.4199C134.838 35.7988 135.799 34.9844 136.525 33.9766L135.189 32.957C134.51 33.8008 133.695 34.4453 132.746 34.8906C131.797 35.3359 130.736 35.5586 129.564 35.5586C128.545 35.5469 127.619 35.3418 126.787 34.9434C125.955 34.5449 125.24 34.0059 124.643 33.3262C124.057 32.6582 123.594 31.8906 123.254 31.0234C122.926 30.1562 122.738 29.2188 122.691 28.2109V27.6309H136.93V26.3477C136.93 25.1406 136.754 24.0098 136.402 22.9551C136.062 21.8887 135.559 20.9629 134.891 20.1777C134.234 19.3809 133.414 18.7598 132.43 18.3145C131.457 17.8574 130.344 17.6289 129.09 17.6289C127.895 17.6289 126.781 17.875 125.75 18.3672C124.73 18.8594 123.84 19.5391 123.078 20.4062C122.305 21.2734 121.695 22.293 121.25 23.4648C120.816 24.6367 120.6 25.9023 120.6 27.2617V28.0176C120.6 29.2949 120.816 30.502 121.25 31.6387C121.684 32.7637 122.293 33.7539 123.078 34.6094C123.852 35.4531 124.783 36.1211 125.873 36.6133C126.963 37.1055 128.164 37.3516 129.477 37.3516ZM129.09 19.4395C129.992 19.4395 130.795 19.6152 131.498 19.9668C132.201 20.3066 132.799 20.7637 133.291 21.3379C133.771 21.9121 134.146 22.5801 134.416 23.3418C134.697 24.1035 134.838 24.8652 134.838 25.627V25.8203H122.797C122.914 24.9062 123.148 24.0625 123.5 23.2891C123.852 22.5039 124.297 21.8301 124.836 21.2676C125.387 20.6934 126.02 20.248 126.734 19.9316C127.449 19.6035 128.234 19.4395 129.09 19.4395ZM158.428 27.6836V27.3145C158.428 26.4355 158.357 25.5801 158.217 24.748C158.076 23.916 157.865 23.1367 157.584 22.4102C157.303 21.7305 156.963 21.0977 156.564 20.5117C156.178 19.9258 155.721 19.4277 155.193 19.0176C154.631 18.584 153.992 18.2441 153.277 17.998C152.574 17.752 151.783 17.6289 150.904 17.6289C150.271 17.6289 149.662 17.7051 149.076 17.8574C148.502 17.998 147.969 18.209 147.477 18.4902C147.02 18.748 146.598 19.0586 146.211 19.4219C145.824 19.7734 145.484 20.1719 145.191 20.6172V10H143.1V37H145.068L145.139 34.5039C145.408 34.8906 145.719 35.2422 146.07 35.5586C146.422 35.8633 146.797 36.127 147.195 36.3496C147.734 36.6777 148.32 36.9238 148.953 37.0879C149.586 37.2637 150.248 37.3516 150.939 37.3516C151.76 37.3516 152.504 37.2344 153.172 37C153.84 36.7773 154.438 36.4727 154.965 36.0859C155.609 35.6172 156.154 35.0547 156.6 34.3984C157.057 33.7305 157.426 32.998 157.707 32.2012C157.941 31.5098 158.117 30.7832 158.234 30.0215C158.363 29.248 158.428 28.4688 158.428 27.6836ZM156.318 27.3145V27.6836C156.307 28.293 156.26 28.9023 156.178 29.5117C156.107 30.1211 155.979 30.7012 155.791 31.252C155.604 31.8848 155.346 32.4707 155.018 33.0098C154.689 33.5488 154.291 34.0117 153.822 34.3984C153.412 34.7383 152.932 35.0078 152.381 35.207C151.842 35.3945 151.232 35.4883 150.553 35.4883C149.955 35.4883 149.381 35.4121 148.83 35.2598C148.279 35.0957 147.77 34.8613 147.301 34.5566C146.844 34.252 146.434 33.8887 146.07 33.4668C145.707 33.0332 145.414 32.5527 145.191 32.0254V23.2539C145.402 22.7031 145.678 22.1992 146.018 21.7422C146.369 21.2734 146.768 20.8691 147.213 20.5293C147.67 20.2012 148.174 19.9434 148.725 19.7559C149.287 19.5684 149.885 19.4746 150.518 19.4746C151.186 19.4746 151.783 19.5684 152.311 19.7559C152.85 19.9434 153.324 20.1953 153.734 20.5117C154.227 20.875 154.637 21.332 154.965 21.8828C155.293 22.4219 155.562 23.0078 155.773 23.6406C155.961 24.2148 156.096 24.8184 156.178 25.4512C156.26 26.0723 156.307 26.6934 156.318 27.3145ZM185.604 27.3145V27.6836C185.604 28.9141 185.762 30.1094 186.078 31.2695C186.395 32.4297 186.857 33.4551 187.467 34.3457C188.088 35.2598 188.867 35.9922 189.805 36.543C190.754 37.082 191.861 37.3516 193.127 37.3516C194.275 37.3516 195.354 37.1172 196.361 36.6484C197.381 36.168 198.219 35.4766 198.875 34.5742L198.945 37H200.914V10H198.805V20.5469C198.184 19.6328 197.387 18.918 196.414 18.4023C195.441 17.8867 194.357 17.6289 193.162 17.6289C191.861 17.6289 190.736 17.9043 189.787 18.4551C188.838 18.9941 188.047 19.7266 187.414 20.6523C186.828 21.5195 186.377 22.5332 186.061 23.6934C185.756 24.8535 185.604 26.0605 185.604 27.3145ZM187.713 27.6836V27.3145C187.713 26.377 187.812 25.4453 188.012 24.5195C188.223 23.5938 188.551 22.7617 188.996 22.0234C189.465 21.2617 190.068 20.6465 190.807 20.1777C191.545 19.709 192.465 19.4746 193.566 19.4746C194.785 19.4746 195.852 19.8086 196.766 20.4766C197.691 21.1445 198.371 22.0117 198.805 23.0781V32.1836C198.348 33.2148 197.645 34.0234 196.695 34.6094C195.746 35.1953 194.691 35.4883 193.531 35.4883C192.441 35.4883 191.527 35.2598 190.789 34.8027C190.062 34.334 189.465 33.7246 188.996 32.9746C188.562 32.2363 188.24 31.4043 188.029 30.4785C187.818 29.5527 187.713 28.6211 187.713 27.6836ZM215.961 37.3516C217.543 37.3516 218.932 37.041 220.127 36.4199C221.322 35.7988 222.283 34.9844 223.01 33.9766L221.674 32.957C220.994 33.8008 220.18 34.4453 219.23 34.8906C218.281 35.3359 217.221 35.5586 216.049 35.5586C215.029 35.5469 214.104 35.3418 213.271 34.9434C212.439 34.5449 211.725 34.0059 211.127 33.3262C210.541 32.6582 210.078 31.8906 209.738 31.0234C209.41 30.1562 209.223 29.2188 209.176 28.2109V27.6309H223.414V26.3477C223.414 25.1406 223.238 24.0098 222.887 22.9551C222.547 21.8887 222.043 20.9629 221.375 20.1777C220.719 19.3809 219.898 18.7598 218.914 18.3145C217.941 17.8574 216.828 17.6289 215.574 17.6289C214.379 17.6289 213.266 17.875 212.234 18.3672C211.215 18.8594 210.324 19.5391 209.562 20.4062C208.789 21.2734 208.18 22.293 207.734 23.4648C207.301 24.6367 207.084 25.9023 207.084 27.2617V28.0176C207.084 29.2949 207.301 30.502 207.734 31.6387C208.168 32.7637 208.777 33.7539 209.562 34.6094C210.336 35.4531 211.268 36.1211 212.357 36.6133C213.447 37.1055 214.648 37.3516 215.961 37.3516ZM215.574 19.4395C216.477 19.4395 217.279 19.6152 217.982 19.9668C218.686 20.3066 219.283 20.7637 219.775 21.3379C220.256 21.9121 220.631 22.5801 220.9 23.3418C221.182 24.1035 221.322 24.8652 221.322 25.627V25.8203H209.281C209.398 24.9062 209.633 24.0625 209.984 23.2891C210.336 22.5039 210.781 21.8301 211.32 21.2676C211.871 20.6934 212.504 20.248 213.219 19.9316C213.934 19.6035 214.719 19.4395 215.574 19.4395ZM235.982 37H237.705L245.703 17.9805H243.506L237.266 33.3965L236.861 34.5566L236.457 33.3789L230.164 17.9805H227.949L235.982 37ZM259.203 37.3516C260.785 37.3516 262.174 37.041 263.369 36.4199C264.564 35.7988 265.525 34.9844 266.252 33.9766L264.916 32.957C264.236 33.8008 263.422 34.4453 262.473 34.8906C261.523 35.3359 260.463 35.5586 259.291 35.5586C258.271 35.5469 257.346 35.3418 256.514 34.9434C255.682 34.5449 254.967 34.0059 254.369 33.3262C253.783 32.6582 253.32 31.8906 252.98 31.0234C252.652 30.1562 252.465 29.2188 252.418 28.2109V27.6309H266.656V26.3477C266.656 25.1406 266.48 24.0098 266.129 22.9551C265.789 21.8887 265.285 20.9629 264.617 20.1777C263.961 19.3809 263.141 18.7598 262.156 18.3145C261.184 17.8574 260.07 17.6289 258.816 17.6289C257.621 17.6289 256.508 17.875 255.477 18.3672C254.457 18.8594 253.566 19.5391 252.805 20.4062C252.031 21.2734 251.422 22.293 250.977 23.4648C250.543 24.6367 250.326 25.9023 250.326 27.2617V28.0176C250.326 29.2949 250.543 30.502 250.977 31.6387C251.41 32.7637 252.02 33.7539 252.805 34.6094C253.578 35.4531 254.51 36.1211 255.6 36.6133C256.689 37.1055 257.891 37.3516 259.203 37.3516ZM258.816 19.4395C259.719 19.4395 260.521 19.6152 261.225 19.9668C261.928 20.3066 262.525 20.7637 263.018 21.3379C263.498 21.9121 263.873 22.5801 264.143 23.3418C264.424 24.1035 264.564 24.8652 264.564 25.627V25.8203H252.523C252.641 24.9062 252.875 24.0625 253.227 23.2891C253.578 22.5039 254.023 21.8301 254.562 21.2676C255.113 20.6934 255.746 20.248 256.461 19.9316C257.176 19.6035 257.961 19.4395 258.816 19.4395ZM273.195 10V11.8809H279.963V35.1191H273.195V37H288.506V35.1191H282.055V10H273.195ZM293.252 27.209V27.7715C293.252 29.0723 293.445 30.3027 293.832 31.4629C294.219 32.623 294.775 33.6367 295.502 34.5039C296.229 35.3828 297.119 36.0801 298.174 36.5957C299.229 37.0996 300.424 37.3516 301.76 37.3516C303.084 37.3516 304.268 37.0938 305.311 36.5781C306.365 36.0625 307.25 35.3711 307.965 34.5039C308.691 33.625 309.248 32.6113 309.635 31.4629C310.021 30.3027 310.215 29.0723 310.215 27.7715V27.209C310.215 25.9082 310.021 24.6777 309.635 23.5176C309.248 22.3574 308.691 21.3438 307.965 20.4766C307.238 19.5977 306.348 18.9062 305.293 18.4023C304.25 17.8867 303.061 17.6289 301.725 17.6289C300.389 17.6289 299.199 17.8867 298.156 18.4023C297.113 18.918 296.229 19.6094 295.502 20.4766C294.775 21.3555 294.219 22.375 293.832 23.5352C293.445 24.6953 293.252 25.9199 293.252 27.209ZM295.344 27.7715V27.209C295.355 26.2129 295.496 25.2461 295.766 24.3086C296.047 23.3711 296.457 22.5449 296.996 21.8301C297.535 21.1035 298.197 20.5234 298.982 20.0898C299.779 19.6562 300.693 19.4395 301.725 19.4395C302.756 19.4395 303.664 19.6562 304.449 20.0898C305.246 20.5234 305.914 21.1035 306.453 21.8301C306.992 22.5449 307.402 23.3711 307.684 24.3086C307.965 25.2461 308.111 26.2129 308.123 27.209V27.7715C308.111 28.7793 307.965 29.752 307.684 30.6895C307.414 31.627 307.01 32.459 306.471 33.1855C305.932 33.9004 305.27 34.4746 304.484 34.9082C303.699 35.3418 302.791 35.5586 301.76 35.5586C300.717 35.5586 299.797 35.3418 299 34.9082C298.203 34.4746 297.535 33.9004 296.996 33.1855C296.457 32.459 296.047 31.627 295.766 30.6895C295.496 29.752 295.355 28.7793 295.344 27.7715ZM316.016 44.3125H318.107V34.6973C318.389 35.0723 318.711 35.4121 319.074 35.7168C319.449 36.0215 319.848 36.2793 320.27 36.4902C320.797 36.7715 321.359 36.9824 321.957 37.123C322.566 37.2754 323.199 37.3516 323.855 37.3516C325.133 37.3516 326.24 37.082 327.178 36.543C328.115 36.0039 328.889 35.2891 329.498 34.3984C330.096 33.5078 330.547 32.4766 330.852 31.3047C331.168 30.1328 331.326 28.9258 331.326 27.6836V27.3145C331.314 25.9785 331.145 24.7012 330.816 23.4824C330.5 22.2637 330.008 21.2031 329.34 20.3008C328.707 19.4805 327.934 18.8301 327.02 18.3496C326.117 17.8691 325.045 17.6289 323.803 17.6289C323.158 17.6289 322.537 17.7051 321.939 17.8574C321.342 18.0098 320.785 18.2324 320.27 18.5254C319.836 18.7715 319.426 19.0703 319.039 19.4219C318.664 19.7734 318.336 20.166 318.055 20.5996L317.967 17.9805H316.016V44.3125ZM329.217 27.3145V27.6836C329.205 28.6562 329.088 29.623 328.865 30.584C328.654 31.5449 328.309 32.4004 327.828 33.1504C327.359 33.8535 326.756 34.4277 326.018 34.873C325.291 35.3184 324.406 35.541 323.363 35.541C322.777 35.541 322.209 35.4648 321.658 35.3125C321.107 35.1602 320.604 34.9375 320.146 34.6445C319.701 34.375 319.303 34.0469 318.951 33.6602C318.611 33.2617 318.33 32.8164 318.107 32.3242V23.043C318.33 22.5039 318.617 22.0176 318.969 21.584C319.32 21.1387 319.725 20.7578 320.182 20.4414C320.615 20.1367 321.096 19.9023 321.623 19.7383C322.162 19.5625 322.73 19.4746 323.328 19.4746C324.336 19.4746 325.197 19.6797 325.912 20.0898C326.639 20.5 327.242 21.0332 327.723 21.6895C328.238 22.4629 328.613 23.3418 328.848 24.3262C329.094 25.3105 329.217 26.3066 329.217 27.3145ZM337.637 17.9805H335.756V37H337.725L337.742 22.498C337.836 22.1465 337.953 21.7949 338.094 21.4434C338.234 21.0918 338.428 20.7754 338.674 20.4941C338.932 20.1895 339.26 19.9492 339.658 19.7734C340.068 19.5859 340.578 19.4863 341.188 19.4746C341.738 19.4629 342.189 19.5449 342.541 19.7207C342.904 19.8965 343.191 20.1309 343.402 20.4238C343.613 20.7285 343.76 21.0801 343.842 21.4785C343.924 21.8652 343.965 22.2578 343.965 22.6562L343.982 37H345.969L345.986 22.6738C345.986 22.6152 345.98 22.5625 345.969 22.5156C345.969 22.4688 345.969 22.416 345.969 22.3574C346.051 22.0059 346.168 21.6602 346.32 21.3203C346.473 20.9805 346.678 20.6758 346.936 20.4062C347.205 20.1367 347.539 19.9199 347.938 19.7559C348.336 19.5801 348.828 19.4863 349.414 19.4746C349.988 19.4629 350.457 19.5566 350.82 19.7559C351.184 19.9434 351.471 20.1953 351.682 20.5117C351.893 20.8398 352.033 21.209 352.104 21.6191C352.186 22.0293 352.227 22.4395 352.227 22.8496L352.244 37H354.23L354.248 22.8672C354.248 22.1406 354.166 21.4609 354.002 20.8281C353.85 20.1836 353.604 19.6211 353.264 19.1406C352.936 18.6836 352.49 18.3203 351.928 18.0508C351.377 17.7695 350.703 17.6289 349.906 17.6289C349.355 17.6289 348.852 17.6992 348.395 17.8398C347.949 17.9805 347.545 18.168 347.182 18.4023C346.842 18.625 346.543 18.8828 346.285 19.1758C346.027 19.4688 345.811 19.7793 345.635 20.1074C345.518 19.7676 345.365 19.4512 345.178 19.1582C344.99 18.8652 344.756 18.6074 344.475 18.3848C344.158 18.1504 343.783 17.9688 343.35 17.8398C342.916 17.6992 342.418 17.6289 341.855 17.6289C340.812 17.6406 339.951 17.875 339.271 18.332C338.604 18.7773 338.082 19.375 337.707 20.125L337.637 17.9805ZM367.309 37.3516C368.891 37.3516 370.279 37.041 371.475 36.4199C372.67 35.7988 373.631 34.9844 374.357 33.9766L373.021 32.957C372.342 33.8008 371.527 34.4453 370.578 34.8906C369.629 35.3359 368.568 35.5586 367.396 35.5586C366.377 35.5469 365.451 35.3418 364.619 34.9434C363.787 34.5449 363.072 34.0059 362.475 33.3262C361.889 32.6582 361.426 31.8906 361.086 31.0234C360.758 30.1562 360.57 29.2188 360.523 28.2109V27.6309H374.762V26.3477C374.762 25.1406 374.586 24.0098 374.234 22.9551C373.895 21.8887 373.391 20.9629 372.723 20.1777C372.066 19.3809 371.246 18.7598 370.262 18.3145C369.289 17.8574 368.176 17.6289 366.922 17.6289C365.727 17.6289 364.613 17.875 363.582 18.3672C362.562 18.8594 361.672 19.5391 360.91 20.4062C360.137 21.2734 359.527 22.293 359.082 23.4648C358.648 24.6367 358.432 25.9023 358.432 27.2617V28.0176C358.432 29.2949 358.648 30.502 359.082 31.6387C359.516 32.7637 360.125 33.7539 360.91 34.6094C361.684 35.4531 362.615 36.1211 363.705 36.6133C364.795 37.1055 365.996 37.3516 367.309 37.3516ZM366.922 19.4395C367.824 19.4395 368.627 19.6152 369.33 19.9668C370.033 20.3066 370.631 20.7637 371.123 21.3379C371.604 21.9121 371.979 22.5801 372.248 23.3418C372.529 24.1035 372.67 24.8652 372.67 25.627V25.8203H360.629C360.746 24.9062 360.98 24.0625 361.332 23.2891C361.684 22.5039 362.129 21.8301 362.668 21.2676C363.219 20.6934 363.852 20.248 364.566 19.9316C365.281 19.6035 366.066 19.4395 366.922 19.4395ZM380.809 37H382.918V24.0098C383.117 23.3887 383.398 22.8086 383.762 22.2695C384.137 21.7305 384.564 21.2617 385.045 20.8633C385.572 20.4414 386.158 20.1074 386.803 19.8613C387.447 19.6035 388.133 19.4746 388.859 19.4746C389.691 19.4629 390.406 19.5742 391.004 19.8086C391.613 20.043 392.123 20.3887 392.533 20.8457C392.932 21.3027 393.225 21.8652 393.412 22.5332C393.611 23.2012 393.717 23.9688 393.729 24.8359V37H395.838L395.82 24.8008C395.82 23.6641 395.68 22.6504 395.398 21.7598C395.117 20.8574 394.707 20.1016 394.168 19.4922C393.617 18.8828 392.938 18.4199 392.129 18.1035C391.332 17.7871 390.412 17.6289 389.369 17.6289C388.584 17.6289 387.846 17.7461 387.154 17.9805C386.463 18.2031 385.824 18.5195 385.238 18.9297C384.746 19.2695 384.301 19.6738 383.902 20.1426C383.504 20.6113 383.158 21.1211 382.865 21.6719L382.76 17.9805H380.809V37ZM409.461 13.1113H407.316V17.9805H402.025V19.7207H407.316V31.6387C407.328 32.6816 407.48 33.5664 407.773 34.293C408.078 35.0078 408.494 35.5938 409.021 36.0508C409.549 36.5078 410.17 36.8359 410.885 37.0352C411.611 37.2461 412.396 37.3516 413.24 37.3516C413.65 37.3516 414.061 37.334 414.471 37.2988C414.893 37.2754 415.297 37.2344 415.684 37.1758C415.988 37.1289 416.275 37.0703 416.545 37C416.826 36.918 417.078 36.8301 417.301 36.7363L416.967 35.1367C416.791 35.1602 416.586 35.1953 416.352 35.2422C416.117 35.2773 415.871 35.3125 415.613 35.3477C415.285 35.3945 414.951 35.4297 414.611 35.4531C414.271 35.4766 413.932 35.4883 413.592 35.4883C413.018 35.4883 412.479 35.4238 411.975 35.2949C411.482 35.166 411.049 34.9551 410.674 34.6621C410.299 34.3574 410 33.9648 409.777 33.4844C409.566 32.9922 409.455 32.377 409.443 31.6387V19.7207H416.492V17.9805H409.443L409.461 13.1113Z" fill="black"/>
</svg>
